<svg viewBox="0 0 256 256" xmlns="http://www.w3.org/2000/svg">
  <g fill="#bfbfbf">
    <path d="m95.8 24.3c-1.8-1.7-2.4-4.5-1.2-6.8 1.4-3 5-4.3 8-2.9s4.3 5 2.9 8c-1.1 2.4-3.6 3.7-6 3.4l-6 12.9c9.6 3.4 20.3-1 24.7-10.4 4.7-10 .3-21.9-9.7-26.6s-21.9-.3-26.6 9.7c-4.4 9.4-.8 20.5 7.9 25.6z"/>
    <path d="m231.7 95.8c1.7-1.8 4.5-2.4 6.8-1.2 3 1.4 4.3 5 2.9 8s-5 4.3-8 2.9c-2.4-1.1-3.7-3.6-3.4-6l-12.9-6c-3.4 9.6 1 20.3 10.4 24.7 10 4.7 21.9.3 26.6-9.7s.3-21.9-9.7-26.6c-9.4-4.4-20.5-.8-25.6 7.9z"/>
    <path d="m160.2 231.7c1.8 1.7 2.4 4.5 1.2 6.8-1.4 3-5 4.3-8 2.9s-4.3-5-2.9-8c1.1-2.4 3.6-3.7 6-3.4l6-12.9c-9.6-3.4-20.3 1-24.7 10.4-4.7 10-.3 21.9 9.7 26.6s21.9.3 26.6-9.7c4.4-9.4.8-20.5-7.9-25.6z"/>
    <path d="m24.3 160.2c-1.7 1.8-4.5 2.4-6.8 1.2-3-1.4-4.3-5-2.9-8s5-4.3 8-2.9c2.4 1.1 3.7 3.6 3.4 6l12.9 6c3.4-9.6-1-20.3-10.4-24.7-10-4.7-21.9-.3-26.6 9.7s-.3 21.9 9.7 26.6c9.4 4.4 20.5.8 25.6-7.9z"/>
  </g>
</svg>
