<svg enable-background="new 0 0 256 256" viewBox="0 0 256 256" xmlns="http://www.w3.org/2000/svg" xmlns:xlink="http://www.w3.org/1999/xlink">
  <clipPath id="a">
    <path d="m208 123.7c-9.6-5.5-16-15.9-16-27.7 0-17.7 14.3-32 32-32 13.1 0 24.4 7.9 29.4 19.3-8.7-31.9-37.8-55.3-72.4-55.3h-41.7l-15.6 20c-5.5 9.6-15.9 16-27.7 16-17.7 0-32-14.3-32-32 0-13.1 7.9-24.4 19.3-29.4-31.9 8.7-55.3 37.8-55.3 72.4v41.7l20 15.6c9.6 5.5 16 15.9 16 27.7 0 17.7-14.3 32-32 32-13.1 0-24.4-7.9-29.4-19.3 8.7 31.8 37.8 55.3 72.4 55.3h41.7l15.6-20c5.5-9.6 15.9-16 27.7-16 17.7 0 32 14.3 32 32 0 13.1-7.9 24.4-19.3 29.4 31.8-8.7 55.3-37.8 55.3-72.4v-41.7z"/>
  </clipPath>
  <linearGradient id="b">
    <stop offset=".2" stop-color="#fc0"/>
    <stop offset=".2269" stop-color="#ffc300"/>
    <stop offset=".2793" stop-color="#ffb600"/>
    <stop offset=".33" stop-color="#ffb200"/>
    <stop offset=".4" stop-color="#ffca00"/>
  </linearGradient>
  <linearGradient id="c" gradientTransform="matrix(-.1341 1.0918 -1.0918 -.1341 -269.4149 -233.1851)" gradientUnits="userSpaceOnUse" x1="268.8961" x2="422.8005" xlink:href="#b" y1="-297.0877" y2="-372.1519"/>
  <clipPath id="d">
    <path d="m208 123.7c-9.6-5.5-16-15.9-16-27.7 0-17.7 14.3-32 32-32 13.1 0 24.4 7.9 29.4 19.3-8.7-31.9-37.8-55.3-72.4-55.3h-41.7l-15.6 20c-5.5 9.6-15.9 16-27.7 16-17.7 0-32-14.3-32-32 0-13.1 7.9-24.4 19.3-29.4-31.9 8.7-55.3 37.8-55.3 72.4v41.7l20 15.6c9.6 5.5 16 15.9 16 27.7 0 17.7-14.3 32-32 32-13.1 0-24.4-7.9-29.4-19.3 8.7 31.8 37.8 55.3 72.4 55.3h41.7l15.6-20c5.5-9.6 15.9-16 27.7-16 17.7 0 32 14.3 32 32 0 13.1-7.9 24.4-19.3 29.4 31.8-8.7 55.3-37.8 55.3-72.4v-41.7z"/>
  </clipPath>
  <linearGradient id="e" gradientTransform="matrix(.1341 -1.0918 1.0918 .1341 9.4149 -770.8149)" gradientUnits="userSpaceOnUse" x1="-810.8242" x2="-656.9198" xlink:href="#b" y1="308.1427" y2="233.0784"/>
  <clipPath id="f">
    <path d="m208 123.7c-9.6-5.5-16-15.9-16-27.7 0-17.7 14.3-32 32-32 13.1 0 24.4 7.9 29.4 19.3-8.7-31.9-37.8-55.3-72.4-55.3h-41.7l-15.6 20c-5.5 9.6-15.9 16-27.7 16-17.7 0-32-14.3-32-32 0-13.1 7.9-24.4 19.3-29.4-31.9 8.7-55.3 37.8-55.3 72.4v41.7l20 15.6c9.6 5.5 16 15.9 16 27.7 0 17.7-14.3 32-32 32-13.1 0-24.4-7.9-29.4-19.3 8.7 31.8 37.8 55.3 72.4 55.3h41.7l15.6-20c5.5-9.6 15.9-16 27.7-16 17.7 0 32 14.3 32 32 0 13.1-7.9 24.4-19.3 29.4 31.8-8.7 55.3-37.8 55.3-72.4v-41.7z"/>
  </clipPath>
  <linearGradient id="g">
    <stop offset=".5" stop-color="#909"/>
    <stop offset=".565" stop-color="#900090"/>
    <stop offset=".67" stop-color="#780078"/>
    <stop offset=".7148" stop-color="#7c007c"/>
    <stop offset=".7612" stop-color="#890089"/>
    <stop offset=".8" stop-color="#909"/>
  </linearGradient>
  <linearGradient id="h" gradientTransform="matrix(-1.0918 -.1341 .1341 -1.0918 -276.2236 -484.5052)" gradientUnits="userSpaceOnUse" x1="-573.5593" x2="-419.655" xlink:href="#g" y1="-534.3358" y2="-609.4001"/>
  <clipPath id="i">
    <path d="m208 123.7c-9.6-5.5-16-15.9-16-27.7 0-17.7 14.3-32 32-32 13.1 0 24.4 7.9 29.4 19.3-8.7-31.9-37.8-55.3-72.4-55.3h-41.7l-15.6 20c-5.5 9.6-15.9 16-27.7 16-17.7 0-32-14.3-32-32 0-13.1 7.9-24.4 19.3-29.4-31.9 8.7-55.3 37.8-55.3 72.4v41.7l20 15.6c9.6 5.5 16 15.9 16 27.7 0 17.7-14.3 32-32 32-13.1 0-24.4-7.9-29.4-19.3 8.7 31.8 37.8 55.3 72.4 55.3h41.7l15.6-20c5.5-9.6 15.9-16 27.7-16 17.7 0 32 14.3 32 32 0 13.1-7.9 24.4-19.3 29.4 31.8-8.7 55.3-37.8 55.3-72.4v-41.7z"/>
  </clipPath>
  <linearGradient id="j" gradientTransform="matrix(1.0918 .1341 -.1341 1.0918 16.2236 -519.4948)" gradientUnits="userSpaceOnUse" x1="31.671" x2="185.5753" xlink:href="#g" y1="545.3845" y2="470.3201"/>
  <linearGradient id="k">
    <stop offset=".8" stop-color="#fc0"/>
    <stop offset="1" stop-color="#fa0"/>
  </linearGradient>
  <linearGradient id="l" gradientTransform="matrix(0 1 -1 0 -97.9953 -371.9953)" gradientUnits="userSpaceOnUse" x1="381.0288" x2="517.6204" xlink:href="#k" y1="-127.1852" y2="-182.3719"/>
  <linearGradient id="m" gradientTransform="matrix(0 -1 1 0 -162.0047 -631.9953)" gradientUnits="userSpaceOnUse" x1="-879.0548" x2="-742.4633" xlink:href="#k" y1="388.8321" y2="333.6456"/>
  <linearGradient id="n">
    <stop offset=".8" stop-color="#909"/>
    <stop offset=".9236" stop-color="#810081"/>
    <stop offset="1" stop-color="#780078"/>
  </linearGradient>
  <linearGradient id="o" gradientTransform="matrix(-1 0 0 -1 -260 -469.9906)" gradientUnits="userSpaceOnUse" x1="-506.9665" x2="-370.375" xlink:href="#n" y1="-499.1805" y2="-554.3672"/>
  <linearGradient id="p" gradientUnits="userSpaceOnUse" x1="9.0335" x2="145.625" xlink:href="#n" y1="226.8101" y2="171.6235"/>
  <path clip-path="url(#a)" d="m-28.9 250.6 17.1-139.8 139.8 17.2-17.2 139.8z" fill="url(#c)"/>
  <path clip-path="url(#d)" d="m284.9 5.4-17.1 139.8-139.8-17.2 17.2-139.8z" fill="url(#e)"/>
  <path clip-path="url(#f)" d="m128 128 139.8 17.2-17.2 139.7-139.8-17.1z" fill="url(#h)"/>
  <path clip-path="url(#i)" d="m128 128-139.8-17.2 17.2-139.7 139.8 17.1z" fill="url(#j)"/>
  <path d="m65.1 96.4c-22.7-11.4-31.9-39.1-20.4-61.8 8.1-16.1 22.3-27.2 38.4-31.8-6.1-1.8-12.5-2.8-19.1-2.8-35.3 0-64 28.7-64 64s28.7 64 64 64h64z" fill="url(#l)"/>
  <path d="m190.9 159.6c22.7 11.4 31.9 39.1 20.4 61.8-8.1 16.1-22.3 27.2-38.4 31.8 6 1.9 12.4 2.9 19.1 2.9 35.3 0 64-28.7 64-64s-28.7-64-64-64h-64z" fill="url(#m)"/>
  <path d="m159.6 65.1c11.4-22.7 39.1-31.9 61.8-20.4 16.1 8.1 27.2 22.3 31.8 38.4 1.8-6.1 2.8-12.5 2.8-19.1 0-35.3-28.7-64-64-64s-64 28.7-64 64v64z" fill="url(#o)"/>
  <path d="m96.4 190.9c-11.4 22.7-39.1 31.9-61.8 20.4-16.1-8.1-27.2-22.3-31.8-38.4-1.8 6.1-2.8 12.5-2.8 19.1 0 35.3 28.7 64 64 64s64-28.7 64-64v-64z" fill="url(#p)"/>
</svg>
