<svg viewBox="0 0 255 123" xmlns="http://www.w3.org/2000/svg">
  <g fill="#1a1a1a">
    <path d="m56.64 11.8c14.87-3.07 31.62-3.07 31.62-7.55 0-2.95-4.01-4.25-11.33-4.25-7.67 0-14.99.35-21.95.71-.82-.36-1.88-.71-2.71-.71-1.65 0-3.78.59-5.9 1.65-19.47 1.77-33.86 5.43-37.99 9.56-2.36 2.6-4.84 9.68-4.84 13.33 0 1.3.35 2.24 1.18 2.24 5.78 0 10.38-4.25 30.92-9.91-1.3 15.69-1.65 49.2-1.89 52.51-1.18 12.04-1.53 18.17-6.49 18.17-9.32 0-11.33-21.24-14.99-21.24-4.48 0-12.27 8.62-12.27 14.28 0 6.84 10.5 21.95 21.59 21.95 10.5 0 27.73-8.5 29.97-36.34 1.77-20.89 3.66-43.07 5.08-54.4z"/>
    <path d="m251.92 71.98c-3.42 0-2.95 6.84-8.38 6.84-2.6 0-7.08-1.42-7.08-10.27 0-14.51 9.91-22.66 9.91-27.14 0-5.31-2.83-10.62-5.66-10.62-3.54 0-8.14 8.14-17.94 10.62.47-3.42.59-6.25.59-7.91 0-5.19-1.06-8.38-5.07-8.38-4.72 0-12.74 8.02-12.74 15.81 0 4.96 2.48 9.56 8.14 10.62-2.83 14.04-9.2 28.2-18.29 28.2-4.25 0-8.61-1.65-11.09-9.32 8.61-2.71 20.06-10.62 20.06-22.66 0-7.55-4.48-14.63-13.69-14.63-12.74 0-23.13 13.45-23.13 30.56 0 3.86.56 7.35 1.58 10.45-1.21 2-2.38 4.65-5.83 4.65-2.95 0-5.19-3.78-5.19-15.93 0-4.96.83-14.16 1.89-23.36 4.84-.83 8.02-1.77 9.91-3.78 1.06-1.06 3.07-6.37 3.07-9.32 0-1.18-.47-2.6-1.77-2.6-2.48 0-6.37 2.36-9.56 3.3.94-7.79 1.77-14.04 1.77-15.58 0-3.3-2.36-4.72-4.25-4.72-3.54 0-9.44 4.13-11.33 8.02-.71 1.42-1.53 8.26-2.36 16.64-27.48 7.47-45.77-1.15-45.77 14.31 0 10.86 25.13 20.65 25.13 31.03 0 3.07-1.89 4.96-5.19 4.96-6.02 0-8.26-7.67-8.61-12.74-.24-3.3-.94-5.31-3.19-5.31-2.72 0-8.33 4.12-9.93 9.65-2.03 2.24-4.21 6.4-10.95 6.4-4.25 0-8.61-1.65-11.09-9.32 8.61-2.71 20.06-10.62 20.06-22.66 0-7.55-4.48-14.63-13.69-14.63-12.74 0-23.13 13.45-23.13 30.56 0 16.75 9.91 26.67 22.66 26.67 7.38 0 14.25-3.32 18.08-7.58 3.44 4.68 10.32 8.53 18.74 8.53 12.15 0 20.53-5.31 20.53-16.05 0-18.88-25.84-22.66-29.73-29.03h1.42c10.74 0 23.95-1.06 33.39-2.48-1.18 11.33-1.89 22.77-1.89 27.02 0 10.62 4.6 19.59 16.28 19.59 7.14 0 11.83-4.8 14.24-8.99 4.3 5.81 10.86 8.99 18.21 8.99 18.05 0 26.55-21.71 30.09-38.82 5.19-.59 10.86-2.01 10.86-2.01-3.07 3.42-11.09 15.58-11.09 26.67 0 7.91 5.9 14.16 16.87 14.16 12.39 0 16.99-11.45 16.99-14.63-.01-1.89-1.08-3.78-2.85-3.78zm-177.46-11.45c0-8.61 2.24-16.28 6.14-16.28 2.71 0 3.89 3.19 3.89 6.02 0 5.9-4.72 9.79-9.91 12.51-.12-.71-.12-1.42-.12-2.25zm108.44 0c0-8.61 2.24-16.28 6.14-16.28 2.71 0 3.89 3.19 3.89 6.02 0 5.9-4.72 9.79-9.91 12.51-.12-.71-.12-1.42-.12-2.25z"/><path d="m56.85 103.33c2.08 0 3.9.65 5.38 2.16l1.22-1.22c-1.61-1.77-4-2.65-6.66-2.65-5.49 0-9.54 3.93-9.54 9.26s4.06 9.26 9.52 9.26c2.68 0 5.07-.91 6.68-2.68l-1.22-1.22c-1.48 1.53-3.3 2.18-5.38 2.18-4.39 0-7.7-3.22-7.7-7.54 0-4.33 3.31-7.55 7.7-7.55z"/><path d="m83.52 101.77-8.32 18.2h2l2.18-4.86h10.14l2.18 4.86h2.03l-8.32-18.2zm-3.43 11.78 4.37-9.78 4.37 9.78z"/><path d="m121.69 101.77h-2.21l-10.69 11v-11h-1.92v18.2h1.92v-4.79l3.72-3.77 7.44 8.56h2.28l-8.42-9.96z"/><path d="m137.32 111.54h9.41v-1.63h-9.41v-6.48h10.56v-1.66h-12.48v18.2h12.87v-1.67h-10.95z"/><path d="m176.37 108.01c0-3.9-2.81-6.24-7.44-6.24h-6.81v18.2h1.92v-5.77h4.89c.52 0 .99-.03 1.46-.08l4.16 5.85h2.11l-4.45-6.24c2.65-.86 4.16-2.86 4.16-5.72zm-7.49 4.55h-4.84v-9.13h4.84c3.64 0 5.56 1.66 5.56 4.58 0 2.86-1.92 4.55-5.56 4.55z"/><path d="m203.39 107.38c0 4.29-2.21 6.29-5.72 6.29-3.38 0-5.43-1.98-5.43-5.88v-6.03h-1.92v6.11c0 4.89 2.7 7.51 7.18 7.51 2.63 0 4.68-.96 5.9-3.09v2.44c0 4.21-2.03 6.24-5.72 6.24-2.55 0-4.55-.83-6.11-2.55l-.88 1.48c1.59 1.77 3.98 2.78 6.99 2.78 4.71 0 7.64-2.73 7.64-8.01v-12.92h-1.92v5.63z"/><path d="m95.63 19.34c.58 0 1.12-.13 1.59-.39.71-.39.85-.88.85-1.23 0-.25-.1-.62-.57-.95-.25-.17-.51-.35-.8-.52-.11-.06-.32-.26-.58-.82-.21-.46-.32-1.06-.32-1.73.09-1.2.42-2.38.99-3.52s1.38-2.23 2.4-3.21c1.01-.98 2.37-1.78 4.05-2.37 1.69-.6 3.61-.91 5.7-.91.71 0 1.62.09 2.69.26 1.1.18 2.09.37 2.96.57.89.2 2.13.5 3.74.88 1.06.25 1.94.46 2.65.62-2.66 2.44-4.84 5.44-6.51 8.94l-4.9 10.17c-.17.38-.17.71 0 .97.17.25.45.38.86.38h1.26c.7 0 1.23-.34 1.49-.93l3.39-7c.69-1.05 1.53-1.97 2.51-2.72.94-.72 1.77-1.08 2.47-1.08.2 0 .26.04.26.08 0 .23-.12.81-.9 2.1-.65 1.08-1.31 2.26-1.96 3.5-.68 1.31-1.03 2.5-1.03 3.54 0 1.69.85 2.62 2.41 2.62.68 0 1.43-.27 2.29-.82.8-.51 1.51-1.08 2.12-1.71.29-.3.6-.63.91-.98.11.94.48 1.76 1.12 2.4.78.78 1.81 1.17 3.07 1.17 1.73 0 3.61-.74 5.59-2.18 1.94-1.42 3.52-3.09 4.72-5 .17-.34.23-.66.17-.94-.08-.39-.38-.64-.78-.66-.26-.02-.62.06-.92.5-1.2 1.57-2.5 2.76-3.85 3.54-2.1 1.21-3.86 1.51-4.68.73-.29-.28-.44-.68-.44-1.24 0-.77.22-1.62.67-2.52.07.06.16.13.25.19.39.26.86.39 1.39.39 2.15 0 3.89-.54 5.16-1.61 1.3-1.09 1.96-2.21 1.96-3.32 0-.83-.35-1.51-1-1.98-.61-.43-1.39-.65-2.3-.65-1.5 0-3.13.67-4.84 1.99-1.65 1.28-3 2.77-4.01 4.45-.01.01-.01.01-.02.02-.95 1.28-1.93 2.45-2.91 3.5-1.26 1.34-1.78 1.44-1.9 1.44-.26 0-.36-.04-.36-.4 0-.23.18-1.05 1.87-3.77 1.36-2.19 2.02-3.76 2.02-4.8 0-.74-.26-1.36-.77-1.83-.5-.46-1.2-.69-2.06-.69-1.12 0-2.29.39-3.49 1.17 1.36-2.52 2.98-4.63 4.82-6.28 3.05.62 5.47.93 7.23.93 1.83 0 3.31-.31 4.4-.91 1.19-.66 1.79-1.46 1.79-2.4 0-1.17-.61-2.08-1.77-2.61-1.04-.48-2.11-.73-3.16-.73h-.29c-2.87.02-5.69.94-8.36 2.73-.9-.25-2.27-.67-4.08-1.25-2-.64-3.67-1.11-4.97-1.41-1.33-.31-2.56-.46-3.68-.46-2.68 0-5.31.41-7.8 1.23-2.5.82-4.65 1.9-6.39 3.21s-3.16 2.81-4.22 4.45c-1.08 1.67-1.63 3.34-1.63 4.97 0 1.42.42 2.6 1.25 3.5.81.93 1.89 1.39 3.18 1.39zm36.11-2.67c1.36-1.74 2.59-2.62 3.67-2.62.62 0 .62.24.62.47 0 .24-.15.79-1.14 1.72-.78.73-1.74 1.09-2.93 1.09-.13 0-.32-.02-.57-.05-.04 0-.07-.01-.1-.01.14-.2.29-.4.45-.6zm-.28-13.27c1.3.06 2.08.31 2.08.69 0 .16-.12.34-.37.51-.2.15-.65.32-1.65.32-1.32 0-2.76-.15-4.28-.44 1.4-.72 2.82-1.08 4.22-1.08z"/><path d="m112.07 11.78c.45-.79 1.02-1.61 1.7-2.43.64-.79 1.26-1.31 1.91-1.61.14-.09.55-.36.55-.81 0-.23-.11-.75-1.11-.75-.91 0-1.92.38-3 1.11-1.03.71-2.06 1.66-3.07 2.84-.98 1.15-1.9 2.32-2.73 3.49-.82 1.15-1.63 2.39-2.44 3.67-.17.29-.53.88-1.08 1.79l-1.19 1.96c-.24.39-.61.98-1.13 1.77-.51.77-.94 1.38-1.3 1.81-.37.44-.81.95-1.31 1.52-.48.55-.97 1.03-1.44 1.42-.46.39-.95.72-1.47 1-.7.41-1.03.77-1.07 1.18-.02.23.06.45.23.6.2.19.49.27.93.27.2 0 .44-.02.71-.06 1.82-.28 3.65-1.24 5.45-2.86 2.5-2.28 4.84-5.27 6.97-8.9.46-.79 1.1-1.96 1.93-3.5.84-1.52 1.49-2.69 1.96-3.51z"/>
  </g>
</svg>
